<?xml version="1.0" standalone="no"?>
<!DOCTYPE svg PUBLIC "-//W3C//DTD SVG 20010904//EN"
 "http://www.w3.org/TR/2001/REC-SVG-20010904/DTD/svg10.dtd">
<svg version="1.0" xmlns="http://www.w3.org/2000/svg"
 width="1000.000000pt" height="1000.000000pt" viewBox="0 0 1000.000000 1000.000000"
 preserveAspectRatio="xMidYMid meet">
<metadata>
Created by potrace 1.14, written by Peter Selinger 2001-2017
</metadata>
<g transform="translate(0.000000,1000.000000) scale(0.100000,-0.100000)"
fill="#000000" stroke="none">
<path d="M4577 8664 c-1 -1 -69 -5 -152 -9 -156 -6 -206 -10 -290 -19 -27 -3
-73 -8 -101 -11 -28 -3 -59 -7 -70 -9 -10 -2 -55 -9 -99 -16 -64 -10 -239 -46
-315 -65 -166 -42 -386 -127 -527 -203 -151 -82 -341 -214 -429 -299 -7 -7
-15 -13 -19 -13 -7 0 -235 -225 -235 -233 0 -2 -16 -22 -36 -43 -32 -35 -74
-88 -141 -179 -73 -100 -241 -388 -247 -425 -1 -3 -4 -10 -8 -16 -11 -17 -108
-265 -106 -272 1 -4 -4 -20 -11 -37 -7 -16 -14 -39 -17 -49 -2 -10 -8 -33 -13
-50 -6 -17 -12 -42 -15 -56 -7 -37 -13 -61 -24 -105 -13 -50 -25 -117 -36
-205 -3 -25 -8 -56 -10 -70 -24 -129 -24 -556 -1 -692 3 -15 7 -41 10 -57 3
-16 7 -49 10 -72 3 -24 10 -57 15 -74 5 -16 12 -46 15 -65 3 -19 17 -71 30
-115 14 -44 27 -89 29 -100 14 -66 207 -485 228 -493 4 -2 8 -8 8 -13 0 -5 34
-69 76 -142 126 -218 141 -246 218 -402 95 -192 192 -443 212 -545 3 -14 8
-34 11 -45 7 -20 8 -23 17 -60 9 -39 45 -210 50 -240 20 -128 23 -154 32 -255
11 -122 5 -380 -10 -468 -2 -9 -7 -39 -10 -67 -4 -27 -10 -66 -12 -85 -3 -19
-14 -78 -25 -130 -11 -52 -22 -106 -25 -120 -3 -14 -10 -43 -15 -64 -6 -22
-12 -49 -14 -60 -1 -12 -5 -28 -9 -36 -3 -8 -17 -55 -31 -105 -14 -49 -28 -97
-32 -105 -3 -8 -7 -17 -8 -20 -1 -3 -4 -12 -8 -20 -16 -43 -62 -166 -63 -170
0 -3 -10 -25 -21 -50 -11 -25 -32 -71 -46 -102 l-26 -58 1730 0 c951 0 1729 1
1729 3 0 2 4 28 10 58 5 30 12 70 15 89 3 19 12 69 20 110 9 41 17 86 20 100
3 14 8 39 11 55 12 54 15 88 19 232 5 162 20 210 83 271 112 106 239 140 552
148 177 4 341 12 395 19 297 40 476 177 529 405 24 103 12 291 -28 422 -13 43
-12 48 15 104 16 33 40 71 54 86 52 57 75 100 75 143 0 52 -24 112 -57 143
-25 23 -25 23 -4 29 11 3 21 10 21 15 0 5 5 6 10 3 19 -12 120 76 112 98 -1 4
2 7 7 7 9 0 22 57 26 108 1 12 -10 46 -23 75 -20 39 -26 68 -26 117 -1 73 7
114 20 116 30 4 74 17 74 23 0 4 8 7 18 8 49 3 192 58 192 74 0 5 5 9 11 9 16
0 69 47 62 54 -4 3 0 6 8 6 8 0 27 20 42 45 34 53 42 137 20 200 -12 35 -77
141 -94 155 -7 5 -120 175 -177 265 -17 28 -36 55 -42 62 -5 7 -10 14 -10 17
0 9 -106 163 -189 275 -125 169 -136 192 -135 276 0 59 7 113 15 123 2 2 2 3
14 47 4 17 18 62 31 100 20 61 23 85 19 180 -2 61 -7 121 -10 135 -3 14 -8 36
-11 50 -11 59 -48 195 -53 200 -3 3 -7 10 -7 15 -1 9 -60 213 -107 370 -11 39
-21 75 -23 80 -13 62 -116 345 -164 450 -10 22 -18 44 -18 49 0 5 -4 12 -9 15
-4 3 -16 22 -27 41 -77 144 -152 243 -281 375 -105 107 -271 245 -294 245 -6
0 -11 4 -11 8 0 5 -35 30 -77 57 -43 26 -89 55 -103 64 -64 40 -283 151 -299
151 -6 0 -11 5 -11 10 0 6 -7 10 -15 10 -8 0 -34 9 -58 20 -115 53 -420 141
-542 155 -16 2 -46 7 -65 10 -84 17 -260 27 -488 29 -112 1 -204 1 -205 0z"/>
</g>
</svg>
